<svg width="599" height="148" viewBox="0 0 599 148" fill="none" xmlns="http://www.w3.org/2000/svg">
<path fill-rule="evenodd" clip-rule="evenodd" d="M65.9224 14.6884C67.6826 13.0448 68.5625 10.9921 68.5625 8.5282C68.5625 6.06434 67.6826 4.06922 65.9224 2.54383C64.1626 0.901245 62.2266 0.0799561 60.1147 0.0799561C58.0024 0.0799561 56.0664 0.901245 54.3066 2.54383C52.5464 4.06922 51.6665 6.06434 51.6665 8.5282C51.6665 10.9921 52.5464 13.0448 54.3066 14.6884C56.0664 16.2138 58.0024 16.9765 60.1147 16.9765C62.2266 16.9765 64.1626 16.2138 65.9224 14.6884ZM66.291 36.08H41.1846L0.17041 105.335H66.291V36.08ZM103.881 26.3271C103.802 25.2782 103.712 24.2734 103.61 23.3124H92.1704C92.4053 26.1279 92.581 29.2958 92.6987 32.8163C92.8159 36.3359 92.8745 39.2109 92.8745 41.4404V105.68H104.842V63.4404C104.842 57.9257 105.546 53.1738 106.954 49.1835C108.362 45.0771 110.239 41.7333 112.586 39.1523C114.933 36.453 117.573 34.4589 120.506 33.1679C123.557 31.8769 126.666 31.2323 129.834 31.2323C134.175 31.2323 137.754 31.9364 140.57 33.3437C143.503 34.7519 145.792 36.747 147.434 39.328C149.194 41.7919 150.426 44.7841 151.13 48.3036C151.834 51.8241 152.186 55.7548 152.186 60.0956V105.68H164.154V55.1679C164.154 44.9599 161.514 36.747 156.234 30.5282C151.071 24.3095 143.269 21.2001 132.826 21.2001C126.959 21.2001 121.386 22.7255 116.106 25.7763C110.826 28.7089 107.013 32.581 104.666 37.3915H104.314C104.314 35.6318 104.255 33.4023 104.138 30.704C104.071 29.1689 103.985 27.7099 103.881 26.3271ZM209.044 33.3437H232.276V23.3124H209.044V0.0799561H197.076V23.3124H180.004V33.3437H197.076V84.7362C197.076 89.3124 197.721 93.0077 199.012 95.8241C200.42 98.6396 202.18 100.869 204.292 102.512C206.404 104.155 208.692 105.269 211.156 105.856C213.4 106.391 215.546 106.682 217.595 106.729C217.796 106.734 217.997 106.736 218.196 106.736C220.02 106.736 221.736 106.629 223.346 106.414C224.118 106.311 224.865 106.184 225.588 106.032C227.934 105.68 230.164 105.093 232.276 104.272L231.748 93.8876C230.784 94.3691 229.78 94.7909 228.735 95.1523C228 95.4062 227.244 95.6308 226.468 95.8241C224.708 96.2929 223.006 96.5282 221.364 96.5282C219.604 96.5282 217.961 96.3525 216.436 95.9999C214.91 95.5312 213.561 94.7685 212.388 93.7118C211.739 92.9911 211.179 92.1161 210.707 91.0849C210.411 90.4374 210.15 89.7294 209.924 88.9599C209.337 86.9648 209.044 84.4433 209.044 81.3915V33.3437ZM306.263 38.9765C310.956 44.0214 313.479 50.4159 313.831 58.1601H257.687C257.922 54.6396 258.802 51.2958 260.327 48.1279C261.852 44.8427 263.906 41.9677 266.487 39.5038C269.068 36.9228 272.06 34.9277 275.463 33.5204C278.866 31.995 282.562 31.2323 286.551 31.2323C295.116 31.2323 301.687 33.8134 306.263 38.9765ZM325.975 64.6718V62.0321C325.975 56.4003 325.095 51.12 323.335 46.1923C321.692 41.2636 319.228 36.9814 315.943 33.3437C312.658 29.5898 308.551 26.6562 303.623 24.5439C298.695 22.3144 293.004 21.2001 286.551 21.2001C280.684 21.2001 275.228 22.3144 270.183 24.5439C265.138 26.6562 260.738 29.6484 256.983 33.5204C253.228 37.3915 250.295 41.9677 248.183 47.248C246.071 52.5282 245.015 58.2773 245.015 64.496C245.015 70.7148 246.071 76.4638 248.183 81.7441C250.412 87.0243 253.404 91.5995 257.159 95.4716C260.914 99.3437 265.372 102.395 270.535 104.624C275.815 106.736 281.506 107.792 287.607 107.792C294.412 107.792 300.748 106.443 306.615 103.744C312.599 101.045 318.055 96.5868 322.983 90.3681L314.007 83.328C311.66 87.0829 308.199 90.4267 303.623 93.3603C299.164 96.1757 293.826 97.5839 287.607 97.5839C283.383 97.5839 279.452 96.8212 275.815 95.2958C272.178 93.6532 269.01 91.4833 266.311 88.7841C263.612 86.0849 261.5 82.9169 259.975 79.2802C258.45 75.6425 257.628 71.7704 257.511 67.664H325.799C325.916 66.6083 325.975 65.6103 325.975 64.6718ZM351.542 32.8163C351.659 36.3359 351.718 39.2109 351.718 41.4404V105.68H363.686V63.4404C363.686 57.9257 364.331 53.2323 365.622 49.3603C367.03 45.371 368.79 42.1445 370.902 39.6796C373.131 37.0986 375.712 35.2216 378.646 34.0478C381.579 32.8749 384.63 32.288 387.798 32.288C389.44 32.288 391.083 32.4052 392.726 32.6396C394.368 32.8749 395.542 33.1093 396.246 33.3437L397.83 22.08C396.539 21.7284 395.248 21.4931 393.958 21.3759C392.784 21.2587 391.435 21.2001 389.91 21.2001C384.043 21.2001 378.763 22.7255 374.07 25.7763C369.376 28.7089 365.856 32.581 363.51 37.3915H363.158C363.158 35.6318 363.099 33.4023 362.982 30.704C362.864 28.0058 362.688 25.5409 362.454 23.3124H351.014C351.248 26.1279 351.424 29.2958 351.542 32.8163ZM467.31 38.9765C472.003 44.0214 474.526 50.4159 474.878 58.1601H418.733C418.969 54.6396 419.849 51.2958 421.374 48.1279C422.899 44.8427 424.953 41.9677 427.534 39.5038C430.115 36.9228 433.107 34.9277 436.51 33.5204C439.913 31.995 443.609 31.2323 447.598 31.2323C456.163 31.2323 462.734 33.8134 467.31 38.9765ZM487.022 64.6718V62.0321C487.022 56.4003 486.142 51.12 484.382 46.1923C482.739 41.2636 480.275 36.9814 476.99 33.3437C473.705 29.5898 469.598 26.6562 464.67 24.5439C459.742 22.3144 454.051 21.2001 447.598 21.2001C441.731 21.2001 436.275 22.3144 431.23 24.5439C426.185 26.6562 421.785 29.6484 418.03 33.5204C414.275 37.3915 411.342 41.9677 409.23 47.248C407.118 52.5282 406.062 58.2773 406.062 64.496C406.062 70.7148 407.118 76.4638 409.23 81.7441C411.459 87.0243 414.451 91.5995 418.206 95.4716C421.961 99.3437 426.419 102.395 431.582 104.624C436.862 106.736 442.553 107.792 448.654 107.792C455.459 107.792 461.795 106.443 467.662 103.744C473.646 101.045 479.102 96.5868 484.03 90.3681L475.054 83.328C472.707 87.0829 469.246 90.4267 464.67 93.3603C460.211 96.1757 454.873 97.5839 448.654 97.5839C444.43 97.5839 440.499 96.8212 436.862 95.2958C433.225 93.6532 430.057 91.4833 427.358 88.7841C424.659 86.0849 422.547 82.9169 421.022 79.2802C419.497 75.6425 418.675 71.7704 418.558 67.664H486.846C486.963 66.6083 487.022 65.6103 487.022 64.6718ZM512.765 147.92H524.732V91.7763H525.261C528.663 96.9394 533.181 100.928 538.813 103.744C544.562 106.443 550.37 107.792 556.237 107.792C562.69 107.792 568.498 106.677 573.661 104.448C578.941 102.219 583.399 99.1679 587.037 95.2958C590.791 91.4238 593.666 86.8475 595.661 81.5683C597.773 76.2879 598.829 70.5976 598.829 64.496C598.829 58.3945 597.773 52.704 595.661 47.4238C593.666 42.1445 590.791 37.5683 587.037 33.6962C583.399 29.8241 578.941 26.7734 573.661 24.5439C568.498 22.3144 562.69 21.2001 556.237 21.2001C550.37 21.2001 544.562 22.6083 538.813 25.4238C533.181 28.123 528.663 32.1708 525.261 37.5683H524.732V23.3124H512.765V147.92ZM584.045 51.6484C585.453 55.6376 586.157 59.9198 586.157 64.496C586.157 69.0722 585.453 73.413 584.045 77.5204C582.637 81.5097 580.583 85.0292 577.885 88.08C575.303 91.0126 572.077 93.3603 568.205 95.12C564.333 96.7626 559.933 97.5839 555.005 97.5839C550.429 97.5839 546.205 96.7626 542.333 95.12C538.461 93.3603 535.117 91.0126 532.301 88.08C529.485 85.1474 527.255 81.6855 525.613 77.6962C524.087 73.5898 523.325 69.1894 523.325 64.496C523.325 59.8027 524.087 55.4609 525.613 51.4716C527.255 47.3652 529.485 43.8456 532.301 40.912C535.117 37.8612 538.461 35.5146 542.333 33.872C546.205 32.1122 550.429 31.2323 555.005 31.2323C559.933 31.2323 564.333 32.1122 568.205 33.872C572.077 35.6318 575.303 38.037 577.885 41.0878C580.583 44.0214 582.637 47.5409 584.045 51.6484Z" fill="white"/>
</svg>
