<?xml version="1.0" encoding="UTF-8" standalone="no"?>
<svg
   xmlns:dc="http://purl.org/dc/elements/1.1/"
   xmlns:cc="http://creativecommons.org/ns#"
   xmlns:rdf="http://www.w3.org/1999/02/22-rdf-syntax-ns#"
   xmlns:svg="http://www.w3.org/2000/svg"
   xmlns="http://www.w3.org/2000/svg"
   xmlns:sodipodi="http://sodipodi.sourceforge.net/DTD/sodipodi-0.dtd"
   xmlns:inkscape="http://www.inkscape.org/namespaces/inkscape"
   width="363.42493"
   height="133.34908"
   viewBox="0 0 363.42493 133.34908"
   version="1.1"
   id="svg45"
   sodipodi:docname="oauth-illustration.svg"
   style="fill:none"
   inkscape:version="0.92.5 (2060ec1f9f, 2020-04-08)">
  <metadata
     id="metadata49">
    <rdf:RDF>
      <cc:Work
         rdf:about="">
        <dc:format>image/svg+xml</dc:format>
        <dc:type
           rdf:resource="http://purl.org/dc/dcmitype/StillImage" />
      </cc:Work>
    </rdf:RDF>
  </metadata>
  <sodipodi:namedview
     pagecolor="#ffffff"
     bordercolor="#666666"
     borderopacity="1"
     objecttolerance="10"
     gridtolerance="10"
     guidetolerance="10"
     inkscape:pageopacity="0"
     inkscape:pageshadow="2"
     inkscape:window-width="2560"
     inkscape:window-height="1025"
     id="namedview47"
     showgrid="false"
     inkscape:zoom="1.6040669"
     inkscape:cx="131.55454"
     inkscape:cy="62.80001"
     inkscape:window-x="0"
     inkscape:window-y="421"
     inkscape:window-maximized="1"
     inkscape:current-layer="svg45" />
  <g
     id="g875"
     transform="translate(-0.98046784,-24.89845)">
    <g
       id="g864">
      <path
         d="m 40.9483,100.899 c -1.9891,0 -3.8967,0.79 -5.3033,2.197 -1.4065,1.406 -2.1967,3.314 -2.1967,5.303 v 47.974 c 10e-5,0.371 0.1103,0.733 0.3165,1.042 0.2063,0.308 0.4994,0.548 0.8423,0.69 0.3429,0.142 0.7201,0.179 1.0839,0.106 0.3638,-0.073 0.6978,-0.252 0.9598,-0.515 l 10.6988,-10.698 c 0.7031,-0.704 1.6568,-1.099 2.6512,-1.099 h 35.9475 c 1.9892,0 3.8968,-0.79 5.3033,-2.197 1.4066,-1.406 2.1967,-3.314 2.1967,-5.303 v -30 c 0,-1.989 -0.7901,-3.897 -2.1967,-5.303 -1.4065,-1.407 -3.3141,-2.197 -5.3033,-2.197 z"
         id="path2"
         inkscape:connector-curvature="0"
         style="fill:#4865ff;fill-opacity:0.2" />
      <path
         d="m 26.049,35.6798 c 0.7148,-4.0133 6.1476,-4.7674 7.9283,-1.1004 l 6.6963,13.7895 c 0.7964,1.64 2.5582,2.5806 4.3639,2.33 l 15.1839,-2.1075 c 4.0378,-0.5604 6.4338,4.3735 3.4965,7.2003 L 52.6726,66.4215 c -1.3136,1.2641 -1.6637,3.2303 -0.8674,4.8702 l 6.6964,13.7896 c 1.7807,3.6669 -2.1713,7.4703 -5.7674,5.5503 L 39.2115,83.4117 c -1.6082,-0.8586 -3.5864,-0.5841 -4.8999,0.6801 L 23.2662,94.7216 c -2.9372,2.8267 -7.7756,0.2434 -7.0609,-3.7699 l 2.6878,-15.092 c 0.3197,-1.7948 -0.5527,-3.5913 -2.1609,-4.45 L 3.20945,64.1898 c -3.596035,-1.92 -2.634334,-7.3199 1.40345,-7.8803 l 15.1839,-2.1074 c 1.8057,-0.2506 3.2447,-1.6355 3.5644,-3.4303 z"
         id="path4"
         inkscape:connector-curvature="0"
         style="fill:#4865ff;fill-opacity:0.2" />
      <path
         d="m 121.269,89.3099 c -4.131,1.1421 -8.351,-1.6519 -9.539,-5.9451 l -6.043,-21.8526 c -1.188,-4.2935 0.998,-8.8591 5.128,-10.0013 l 91.84,-25.3987 c 0.208,-0.0607 0.426,-0.0794 0.641,-0.0551 0.215,0.0242 0.423,0.091 0.612,0.1964 0.189,0.1055 0.356,0.2475 0.49,0.4177 0.133,0.1703 0.232,0.3655 0.289,0.5742 0.058,0.2087 0.074,0.4268 0.047,0.6417 -0.028,0.2148 -0.098,0.422 -0.205,0.6097 -0.109,0.1876 -0.253,0.3519 -0.425,0.4833 -0.172,0.1314 -0.368,0.2273 -0.578,0.282 l -91.839,25.3988 c -2.232,0.617 -3.608,3.2396 -2.85,5.9802 l 6.043,21.8524 c 0.758,2.7405 3.286,4.2835 5.518,3.6664 l 101.983,-28.2041 -0.446,2.1244 c -0.102,0.4843 -0.163,0.9656 -0.186,1.4409 z M 221.768,62.7072 121.575,90.4166 c -4.844,1.3394 -9.624,-1.9487 -10.952,-6.7458 L 104.58,61.8183 c -1.326,-4.7972 1.086,-10.0747 5.929,-11.4141 l 91.833,-25.3969 c 0.351,-0.1013 0.719,-0.1323 1.082,-0.0913 0.366,0.0413 0.721,0.155 1.044,0.3345 0.321,0.1795 0.604,0.4213 0.833,0.7112 0.227,0.2899 0.396,0.6222 0.493,0.9776 0.099,0.3554 0.125,0.7268 0.079,1.0925 -0.047,0.3658 -0.165,0.7187 -0.349,1.0382 -0.185,0.3195 -0.43,0.5992 -0.723,0.8229 -0.291,0.2219 -0.623,0.3843 -0.976,0.4779 l -91.832,25.3968 c -1.501,0.415 -2.673,2.3114 -2.05,4.5674 l 6.044,21.8525 c 0.623,2.2558 2.604,3.2805 4.105,2.8657 l 102.554,-28.3621 1.764,-8.4053 c 1.024,-4.8816 5.646,-8.4413 10.555,-7.4112 l 6.621,1.3895 -1.878,-6.7958 c -0.53,-1.9167 -2.688,-3.0157 -4.383,-2.6299 L 132.878,61.1707 c -1.264,0.3498 -1.841,0.985 -2.209,1.855 -0.375,0.8868 -0.425,2.1313 -0.083,3.3627 0.34,1.2313 1.021,2.2738 1.799,2.8416 0.763,0.5571 1.583,0.8062 2.848,0.4565 l 73.918,-20.4424 c 0.352,-0.1013 0.719,-0.1323 1.082,-0.0914 0.366,0.0414 0.721,0.1551 1.043,0.3346 0.323,0.1795 0.605,0.4213 0.834,0.7112 0.227,0.29 0.395,0.6222 0.493,0.9776 0.099,0.3553 0.126,0.7267 0.079,1.0925 -0.047,0.3658 -0.165,0.7187 -0.349,1.0382 -0.184,0.3195 -0.431,0.5992 -0.723,0.823 -0.291,0.2218 -0.623,0.3841 -0.976,0.4777 l -73.918,20.4424 c -2.864,0.7921 -5.607,0.1012 -7.615,-1.3648 -1.993,-1.4547 -3.258,-3.5666 -3.879,-5.8134 -0.62,-2.2409 -0.637,-4.7531 0.327,-7.0294 0.976,-2.3056 2.997,-4.2473 5.846,-5.0351 l 102.719,-28.4076 0.156,10e-5 c 0.02,0 0.041,2e-4 0.061,7e-4 4.504,-0.9082 9.401,1.7434 10.74,6.5841 l 2.645,9.5657 109.841,23.048 c 4.918,1.032 7.658,6.1472 6.636,11.0184 l -4.656,22.1895 c -1.023,4.8709 -5.587,8.4539 -10.505,7.4219 L 255.783,87.6608 c -0.359,-0.0712 -0.7,-0.2124 -1.004,-0.4154 -0.307,-0.2048 -0.57,-0.4686 -0.773,-0.7759 -0.204,-0.3072 -0.345,-0.6519 -0.414,-1.0141 -0.07,-0.3621 -0.067,-0.7344 0.009,-1.0952 0.076,-0.361 0.223,-0.7031 0.432,-1.0069 0.209,-0.3036 0.476,-0.5627 0.786,-0.7622 0.311,-0.1994 0.657,-0.3352 1.02,-0.3995 0.36,-0.0638 0.729,-0.0559 1.086,0.023 l 93.249,19.5674 c 1.524,0.319 3.436,-0.828 3.916,-3.1187 l 4.656,-22.1895 c 0.481,-2.2907 -0.808,-4.1097 -2.332,-4.4295 L 248.568,49.4146 c -0.421,3.5007 -2.702,6.6279 -6.263,7.6129 l -14.891,4.0392 -0.033,0.1558 c -0.408,1.9462 1.005,3.9129 2.687,4.3473 l 104.028,21.8285 c 1.284,0.2696 2.087,-0.0307 2.814,-0.6348 0.74,-0.6156 1.354,-1.6988 1.617,-2.9493 0.262,-1.2502 0.135,-2.4893 -0.296,-3.3505 -0.422,-0.8452 -1.037,-1.4429 -2.321,-1.7124 L 260.852,63.0016 c -0.358,-0.0712 -0.699,-0.2124 -1.003,-0.4155 -0.307,-0.2048 -0.57,-0.4685 -0.774,-0.7758 -0.203,-0.3073 -0.344,-0.652 -0.413,-1.0142 -0.07,-0.362 -0.067,-0.7343 0.009,-1.0952 0.076,-0.3608 0.222,-0.7031 0.432,-1.0068 0.209,-0.3037 0.476,-0.5627 0.786,-0.7622 0.31,-0.1994 0.657,-0.3353 1.02,-0.3996 0.36,-0.0636 0.729,-0.0559 1.086,0.0231 l 75.058,15.7497 c 2.908,0.6103 5.029,2.4829 6.141,4.707 1.102,2.2064 1.258,4.6634 0.779,6.9449 -0.477,2.2754 -1.615,4.5154 -3.516,6.0959 -1.925,1.6006 -4.612,2.3985 -7.504,1.7917 L 228.649,70.958 228.51,70.8864 c -0.017,-0.0094 -0.035,-0.019 -0.054,-0.0289 -3.616,-1.0308 -6.372,-4.3016 -6.688,-8.1503 z m 5.894,-2.8214 0.755,-3.5993 12.71,-3.5151 c 2.231,-0.617 3.658,-3.2535 2.899,-5.9939 l -3.212,-11.6153 c -0.708,-2.562 -3.519,-3.9668 -5.772,-3.437 l -102.47,28.3387 c -1.619,0.4477 -2.462,1.3369 -2.96,2.5141 -0.499,1.1773 -0.527,2.6961 -0.134,4.1164 0.394,1.4204 1.198,2.7091 2.23,3.463 1.033,0.7539 2.212,1.0835 3.832,0.6358 l 73.924,-20.4443 c 0.207,-0.0606 0.426,-0.0794 0.641,-0.0551 0.215,0.0243 0.423,0.0911 0.612,0.1965 0.19,0.1055 0.356,0.2474 0.489,0.4177 0.134,0.1703 0.233,0.3655 0.291,0.5742 0.057,0.2087 0.073,0.4268 0.046,0.6417 -0.028,0.2148 -0.098,0.422 -0.205,0.6097 -0.109,0.1876 -0.253,0.3518 -0.425,0.4833 -0.172,0.1314 -0.369,0.2272 -0.579,0.282 L 136.41,73.9431 c -2.502,0.6919 -4.886,0.0894 -6.633,-1.1856 -1.745,-1.2751 -2.883,-3.1474 -3.449,-5.1919 -0.565,-2.0448 -0.565,-4.2844 0.279,-6.2756 0.843,-1.9912 2.593,-3.6842 5.094,-4.3759 L 234.269,28.548 c 0.055,0 0.108,0.0026 0.162,0.0079 0.008,-0.0017 0.016,-0.0042 0.025,-0.0067 l 0.011,-0.0035 0.005,-0.0014 0.008,-0.0019 c 3.969,-0.8434 8.307,1.4936 9.484,5.7482 l 3.213,11.6152 c 1.186,4.2935 -1.048,8.8728 -5.178,10.015 z m 1.02,-4.8641 1.175,-5.5937 c 0.477,-2.2729 2.426,-3.4307 3.965,-3.1077 l 9.264,1.9439 c 0.006,1.7064 -1.024,3.0572 -2.265,3.4003 z m 14.229,-7.9675 -8.852,-1.8578 c -2.266,-0.4754 -4.742,1.2131 -5.327,3.9959 l -2.475,11.7944 c -0.546,2.6015 1.307,5.1392 3.552,5.702 L 333.86,88.5223 c 1.644,0.3448 2.801,-0.0584 3.784,-0.8758 0.983,-0.8173 1.704,-2.1541 2.007,-3.5964 0.302,-1.4422 0.179,-2.9563 -0.392,-4.0998 -0.572,-1.1437 -1.469,-1.9779 -3.113,-2.3228 L 261.081,61.8763 c -0.212,-0.0415 -0.414,-0.1248 -0.594,-0.2451 -0.18,-0.1202 -0.335,-0.2751 -0.455,-0.4556 -0.119,-0.1805 -0.202,-0.3829 -0.243,-0.5956 -0.04,-0.2127 -0.038,-0.4314 0.006,-0.6433 0.044,-0.2119 0.131,-0.4129 0.253,-0.5913 0.123,-0.1783 0.28,-0.3305 0.462,-0.4476 0.183,-0.1172 0.386,-0.197 0.599,-0.2347 0.214,-0.0378 0.432,-0.0328 0.644,0.0147 l 75.064,15.7512 c 2.54,0.5331 4.383,2.1624 5.35,4.0964 0.966,1.9344 1.118,4.1196 0.682,6.1959 -0.435,2.0762 -1.463,4.0661 -3.126,5.4487 -1.663,1.3823 -3.994,2.0837 -6.534,1.5506 L 229.038,69.8662 c -0.047,-0.0247 -0.094,-0.0517 -0.139,-0.0809 -0.008,-0.0021 -0.017,-0.0037 -0.025,-0.0051 -0.009,-0.0015 -0.018,-0.0031 -0.025,-0.0054 -3.914,-1.0713 -6.696,-5.1386 -5.79,-9.4587 l 2.475,-11.7945 c 0.915,-4.3597 5.001,-7.4031 9.195,-6.5231 l 7.202,1.5112 z m 5.728,1.202 c 0.003,-0.8834 -0.113,-1.7779 -0.356,-2.6564 l -0.223,-0.804 109.261,22.9262 c 4.194,0.88 6.663,5.2992 5.748,9.6587 l -4.656,22.1896 c -0.915,4.3597 -4.952,7.4137 -9.146,6.5337 L 256.011,86.5355 c -0.212,-0.0414 -0.414,-0.1247 -0.594,-0.2451 -0.18,-0.1202 -0.335,-0.2751 -0.455,-0.4555 -0.119,-0.1806 -0.202,-0.3829 -0.243,-0.5956 -0.04,-0.2127 -0.038,-0.4314 0.006,-0.6434 0.045,-0.2119 0.131,-0.4129 0.253,-0.5913 0.123,-0.1783 0.28,-0.3304 0.462,-0.4476 0.183,-0.1172 0.386,-0.1969 0.599,-0.2346 0.214,-0.0378 0.432,-0.0328 0.644,0.0146 l 93.255,19.568 c 2.266,0.476 4.692,-1.223 5.276,-4.006 l 4.656,-22.1894 c 0.584,-2.7827 -0.954,-5.3137 -3.22,-5.7891 z"
         id="path6"
         inkscape:connector-curvature="0"
         style="clip-rule:evenodd;fill:url(#paint0_linear_1424_79834);fill-rule:evenodd" />
      <path
         d="m 79.3809,54.8606 4.7678,-7.2279 c 0.9116,-1.3801 2.0899,-2.5641 3.4657,-3.4822 1.3757,-0.9182 2.9212,-1.552 4.5454,-1.8643 1.6243,-0.3123 3.2945,-0.2967 4.9127,0.0459 1.6181,0.3426 3.1515,1.0052 4.5095,1.9488 l 7.102,4.9459 8.491,-1.7393 c 1.62,-0.3303 3.289,-0.3335 4.911,-0.0094 1.621,0.3241 3.161,0.969 4.53,1.8967 1.369,0.9278 2.538,2.1197 3.439,3.5057 0.583,0.8954 1.046,1.8601 1.38,2.8696 l -0.339,0.0574 c -2.849,0.7878 -4.871,2.7295 -5.847,5.0351 -0.963,2.2762 -0.947,4.7885 -0.327,7.0294 0.621,2.2468 1.887,4.3587 3.879,5.8134 2.009,1.466 4.751,2.1569 7.616,1.3648 l 6.765,-2.0682 c 0.332,0.3848 0.641,0.7905 0.924,1.2149 0.918,1.3758 1.552,2.9212 1.864,4.5455 0.313,1.6242 0.297,3.2945 -0.046,4.9126 -0.342,1.6182 -1.005,3.1515 -1.948,4.5098 l -4.946,7.1017 1.739,8.4905 c 0.33,1.62 0.334,3.29 0.009,4.911 -0.324,1.622 -0.969,3.162 -1.896,4.531 -0.928,1.368 -2.12,2.537 -3.506,3.439 -1.386,0.901 -2.938,1.517 -4.565,1.81 l -8.518,1.531 -4.768,7.227 c -0.911,1.381 -2.09,2.564 -3.465,3.483 -1.376,0.918 -2.922,1.552 -4.546,1.864 -1.624,0.312 -3.294,0.297 -4.912,-0.046 -1.619,-0.343 -3.152,-1.005 -4.51,-1.949 l -7.102,-4.946 -8.4906,1.74 c -1.6201,0.33 -3.2898,0.333 -4.9112,0.009 -1.6213,-0.324 -3.1615,-0.969 -4.5301,-1.897 -1.3686,-0.927 -2.538,-2.119 -3.4395,-3.505 -0.9015,-1.386 -1.5169,-2.939 -1.81,-4.566 l -1.5306,-8.517 -7.2279,-4.768 c -1.3801,-0.912 -2.564,-2.09 -3.4822,-3.466 -0.9181,-1.3756 -1.552,-2.921 -1.8642,-4.5453 -0.3123,-1.6242 -0.2967,-3.2945 0.0458,-4.9126 0.3426,-1.6182 1.0052,-3.1515 1.9489,-4.5098 l 4.9459,-7.1017 -1.7394,-8.4906 c -0.3303,-1.6201 -0.3334,-3.2899 -0.0093,-4.9112 0.3241,-1.6214 0.9689,-3.1616 1.8967,-4.5302 0.9277,-1.3686 2.1196,-2.538 3.5057,-3.4395 1.386,-0.9014 2.9382,-1.5168 4.5655,-1.81 z"
         id="path8"
         inkscape:connector-curvature="0"
         style="fill:url(#paint1_linear_1424_79834)" />
      <path
         d="m 137.95,68.9672 -3.016,0.7195 c -1.265,0.3498 -2.086,0.1007 -2.849,-0.4564 -0.777,-0.5678 -1.458,-1.6104 -1.799,-2.8416 -0.341,-1.2315 -0.291,-2.4759 0.084,-3.3627 0.364,-0.8603 0.932,-1.4911 2.167,-1.8432 l 0.859,4.7806 z"
         id="path10"
         inkscape:connector-curvature="0"
         style="fill:url(#paint2_linear_1424_79834)" />
      <path
         d="m 119.773,76.1389 c 0.306,0.305 0.549,0.6672 0.714,1.066 0.166,0.3989 0.251,0.8264 0.251,1.2582 0,0.4318 -0.085,0.8593 -0.251,1.2581 -0.165,0.3989 -0.408,0.7611 -0.714,1.066 l -19.696,19.6958 c -0.3048,0.306 -0.6671,0.549 -1.0659,0.714 -0.3988,0.166 -0.8264,0.251 -1.2581,0.251 -0.4318,0 -0.8594,-0.085 -1.2582,-0.251 -0.3988,-0.165 -0.7611,-0.408 -1.066,-0.714 L 85.5807,90.6353 C 85.2755,90.3301 85.0334,89.9678 84.8682,89.569 84.703,89.1702 84.618,88.7428 84.618,88.3112 c 0,-0.4316 0.085,-0.8591 0.2502,-1.2578 0.1652,-0.3988 0.4073,-0.7612 0.7125,-1.0664 0.3052,-0.3052 0.6676,-0.5473 1.0663,-0.7125 0.3988,-0.1651 0.8262,-0.2502 1.2579,-0.2502 0.4316,0 0.859,0.0851 1.2578,0.2502 0.3988,0.1652 0.7611,0.4073 1.0663,0.7125 l 7.524,7.5306 17.372,-17.3787 c 0.305,-0.3057 0.667,-0.5482 1.066,-0.7137 0.399,-0.1655 0.826,-0.2507 1.258,-0.2507 0.432,0 0.859,0.0852 1.258,0.2507 0.399,0.1655 0.761,0.408 1.066,0.7137 z"
         id="path12"
         inkscape:connector-curvature="0"
         style="clip-rule:evenodd;fill:#121212;fill-rule:evenodd" />
      <path
         d="m 130.37,63.026 c 0.368,-0.87 0.945,-1.5053 2.209,-1.8551 l 10.326,-2.7725 -0.5,-1 -10.132,2.6658 c -1.62,0.4477 -2.462,1.3368 -2.96,2.5141 -0.499,1.1773 -0.527,2.6961 -0.134,4.1164 0.393,1.4204 1.197,2.7091 2.23,3.463 1.032,0.7539 2.212,1.0835 3.831,0.6358 l 18.165,-4.8951 -0.5,-1 -17.971,4.7883 c -1.265,0.3498 -2.086,0.1007 -2.849,-0.4564 -0.777,-0.5678 -1.458,-1.6104 -1.799,-2.8416 -0.341,-1.2315 -0.291,-2.4759 0.084,-3.3627 z"
         id="path14"
         inkscape:connector-curvature="0"
         style="fill:url(#paint3_linear_1424_79834)" />
      <path
         d="m 128.801,73.6854 c 2.009,1.466 4.751,2.1569 7.616,1.3648 l 18.988,-5.1518 -0.5,-1 -18.794,5.045 c -2.502,0.6919 -4.886,0.0894 -6.633,-1.1856 -1.746,-1.2751 -2.883,-3.1474 -3.449,-5.1919 -0.566,-2.0448 -0.566,-4.2844 0.278,-6.2756 0.843,-1.9912 2.593,-3.6842 5.095,-4.3759 l 9.503,-2.516 1.5,-1.5 -11.309,2.9091 c -2.849,0.7878 -4.871,2.7295 -5.847,5.0351 -0.963,2.2762 -0.947,4.7885 -0.327,7.0294 0.621,2.2468 1.887,4.3587 3.879,5.8134 z"
         id="path16"
         inkscape:connector-curvature="0"
         style="fill:url(#paint4_linear_1424_79834)" />
    </g>
  </g>
  <defs
     id="defs43">
    <linearGradient
       id="paint0_linear_1424_79834"
       x1="145.06799"
       y1="12.4734"
       x2="145.815"
       y2="208.843"
       gradientUnits="userSpaceOnUse">
      <stop
         stop-color="#FFA7F6"
         id="stop18" />
      <stop
         offset="1"
         stop-color="#4E4AFE"
         id="stop20" />
    </linearGradient>
    <linearGradient
       id="paint1_linear_1424_79834"
       x1="260.95001"
       y1="17.2106"
       x2="260.55099"
       y2="138.711"
       gradientUnits="userSpaceOnUse">
      <stop
         stop-color="#FFA7F6"
         id="stop23" />
      <stop
         offset="1"
         stop-color="#4E4AFE"
         id="stop25" />
    </linearGradient>
    <linearGradient
       id="paint2_linear_1424_79834"
       x1="260.95001"
       y1="17.2106"
       x2="260.55099"
       y2="138.711"
       gradientUnits="userSpaceOnUse">
      <stop
         stop-color="#FFA7F6"
         id="stop28" />
      <stop
         offset="1"
         stop-color="#4E4AFE"
         id="stop30" />
    </linearGradient>
    <linearGradient
       id="paint3_linear_1424_79834"
       x1="260.95001"
       y1="17.2106"
       x2="260.55099"
       y2="138.711"
       gradientUnits="userSpaceOnUse">
      <stop
         stop-color="#FFA7F6"
         id="stop33" />
      <stop
         offset="1"
         stop-color="#4E4AFE"
         id="stop35" />
    </linearGradient>
    <linearGradient
       id="paint4_linear_1424_79834"
       x1="260.95001"
       y1="17.2106"
       x2="260.55099"
       y2="138.711"
       gradientUnits="userSpaceOnUse">
      <stop
         stop-color="#FFA7F6"
         id="stop38" />
      <stop
         offset="1"
         stop-color="#4E4AFE"
         id="stop40" />
    </linearGradient>
  </defs>
</svg>
