<svg width="365" height="184" viewBox="0 0 365 184" fill="none" xmlns="http://www.w3.org/2000/svg">
<path d="M40.9483 100.899C38.9592 100.899 37.0516 101.689 35.645 103.096C34.2385 104.502 33.4483 106.41 33.4483 108.399V156.373C33.4484 156.744 33.5586 157.106 33.7648 157.415C33.9711 157.723 34.2642 157.963 34.6071 158.105C34.95 158.247 35.3272 158.284 35.691 158.211C36.0548 158.138 36.3888 157.959 36.6508 157.696L47.3496 146.998C48.0527 146.294 49.0064 145.899 50.0008 145.899H85.9483C87.9375 145.899 89.8451 145.109 91.2516 143.702C92.6582 142.296 93.4483 140.388 93.4483 138.399V108.399C93.4483 106.41 92.6582 104.502 91.2516 103.096C89.8451 101.689 87.9375 100.899 85.9483 100.899H40.9483Z" fill="#4865FF" fill-opacity="0.2"/>
<path d="M26.049 35.6798C26.7638 31.6665 32.1966 30.9124 33.9773 34.5794L40.6736 48.3689C41.47 50.0089 43.2318 50.9495 45.0375 50.6989L60.2214 48.5914C64.2592 48.031 66.6552 52.9649 63.7179 55.7917L52.6726 66.4215C51.359 67.6856 51.0089 69.6518 51.8052 71.2917L58.5016 85.0813C60.2823 88.7482 56.3303 92.5516 52.7342 90.6316L39.2115 83.4117C37.6033 82.5531 35.6251 82.8276 34.3116 84.0918L23.2662 94.7216C20.329 97.5483 15.4906 94.965 16.2053 90.9517L18.8931 75.8597C19.2128 74.0649 18.3404 72.2684 16.7322 71.4097L3.20945 64.1898C-0.386585 62.2698 0.575116 56.8699 4.6129 56.3095L19.7968 54.2021C21.6025 53.9515 23.0415 52.5666 23.3612 50.7718L26.049 35.6798Z" fill="#4865FF" fill-opacity="0.2"/>
<path fill-rule="evenodd" clip-rule="evenodd" d="M121.269 89.3099C117.138 90.452 112.918 87.658 111.73 83.3648L105.687 61.5122C104.499 57.2187 106.685 52.6531 110.815 51.5109L202.655 26.1122C202.863 26.0515 203.081 26.0328 203.296 26.0571C203.511 26.0813 203.719 26.1481 203.908 26.2535C204.097 26.359 204.264 26.501 204.398 26.6712C204.531 26.8415 204.63 27.0367 204.687 27.2454C204.745 27.4541 204.761 27.6722 204.734 27.8871C204.706 28.1019 204.636 28.3091 204.529 28.4968C204.42 28.6844 204.276 28.8487 204.104 28.9801C203.932 29.1115 203.736 29.2074 203.526 29.2621L111.687 54.6609C109.455 55.2779 108.079 57.9005 108.837 60.6411L114.88 82.4935C115.638 85.234 118.166 86.777 120.398 86.1599L222.381 57.9558L221.935 60.0802C221.833 60.5645 221.772 61.0458 221.749 61.5211L121.269 89.3099ZM221.768 62.7072L121.575 90.4166C116.731 91.756 111.951 88.4679 110.623 83.6708L104.58 61.8183C103.254 57.0211 105.666 51.7436 110.509 50.4042L202.342 25.0073C202.693 24.906 203.061 24.875 203.424 24.916C203.79 24.9573 204.145 25.071 204.468 25.2505C204.789 25.43 205.072 25.6718 205.301 25.9617C205.528 26.2516 205.697 26.5839 205.794 26.9393C205.893 27.2947 205.919 27.6661 205.873 28.0318C205.826 28.3976 205.708 28.7505 205.524 29.07C205.339 29.3895 205.094 29.6692 204.801 29.8929C204.51 30.1148 204.178 30.2772 203.825 30.3708L111.993 55.7676C110.492 56.1826 109.32 58.079 109.943 60.335L115.987 82.1875C116.61 84.4433 118.591 85.468 120.092 85.0532L222.646 56.6911L224.41 48.2858C225.434 43.4042 230.056 39.8445 234.965 40.8746L241.586 42.2641L239.708 35.4683C239.178 33.5516 237.02 32.4526 235.325 32.8384L132.878 61.1707C131.614 61.5205 131.037 62.1557 130.669 63.0257C130.294 63.9125 130.244 65.157 130.586 66.3884C130.926 67.6197 131.607 68.6622 132.385 69.23C133.148 69.7871 133.968 70.0362 135.233 69.6865L209.151 49.2441C209.503 49.1428 209.87 49.1118 210.233 49.1527C210.599 49.1941 210.954 49.3078 211.276 49.4873C211.599 49.6668 211.881 49.9086 212.11 50.1985C212.337 50.4885 212.505 50.8207 212.603 51.1761C212.702 51.5314 212.729 51.9028 212.682 52.2686C212.635 52.6344 212.517 52.9873 212.333 53.3068C212.149 53.6263 211.902 53.906 211.61 54.1298C211.319 54.3516 210.987 54.5139 210.634 54.6075L136.716 75.0499C133.852 75.842 131.109 75.1511 129.101 73.6851C127.108 72.2304 125.843 70.1185 125.222 67.8717C124.602 65.6308 124.585 63.1186 125.549 60.8423C126.525 58.5367 128.546 56.595 131.395 55.8072L234.114 27.3996L234.27 27.3997C234.29 27.3997 234.311 27.3999 234.331 27.4004C238.835 26.4922 243.732 29.1438 245.071 33.9845L247.716 43.5502L357.557 66.5982C362.475 67.6302 365.215 72.7454 364.193 77.6166L359.537 99.8061C358.514 104.677 353.95 108.26 349.032 107.228L255.783 87.6608C255.424 87.5896 255.083 87.4484 254.779 87.2454C254.472 87.0406 254.209 86.7768 254.006 86.4695C253.802 86.1623 253.661 85.8176 253.592 85.4554C253.522 85.0933 253.525 84.721 253.601 84.3602C253.677 83.9992 253.824 83.6571 254.033 83.3533C254.242 83.0497 254.509 82.7906 254.819 82.5911C255.13 82.3917 255.476 82.2559 255.839 82.1916C256.199 82.1278 256.568 82.1357 256.925 82.2146L350.174 101.782C351.698 102.101 353.61 100.954 354.09 98.6633L358.746 76.4738C359.227 74.1831 357.938 72.3641 356.414 72.0443L248.568 49.4146C248.147 52.9153 245.866 56.0425 242.305 57.0275L227.414 61.0667L227.381 61.2225C226.973 63.1687 228.386 65.1354 230.068 65.5698L334.096 87.3983C335.38 87.6679 336.183 87.3676 336.91 86.7635C337.65 86.1479 338.264 85.0647 338.527 83.8142C338.789 82.564 338.662 81.3249 338.231 80.4637C337.809 79.6185 337.194 79.0208 335.91 78.7513L260.852 63.0016C260.494 62.9304 260.153 62.7892 259.849 62.5861C259.542 62.3813 259.279 62.1176 259.075 61.8103C258.872 61.503 258.731 61.1583 258.662 60.7961C258.592 60.4341 258.595 60.0618 258.671 59.7009C258.747 59.3401 258.893 58.9978 259.103 58.6941C259.312 58.3904 259.579 58.1314 259.889 57.9319C260.199 57.7325 260.546 57.5966 260.909 57.5323C261.269 57.4687 261.638 57.4764 261.995 57.5554L337.053 73.3051C339.961 73.9154 342.082 75.788 343.194 78.0121C344.296 80.2185 344.452 82.6755 343.973 84.957C343.496 87.2324 342.358 89.4724 340.457 91.0529C338.532 92.6535 335.845 93.4514 332.953 92.8446L228.649 70.958L228.51 70.8864C228.493 70.877 228.475 70.8674 228.456 70.8575C224.84 69.8267 222.084 66.5559 221.768 62.7072ZM227.662 59.8858L228.417 56.2865L241.127 52.7714C243.358 52.1544 244.785 49.5179 244.026 46.7775L240.814 35.1622C240.106 32.6002 237.295 31.1954 235.042 31.7252L132.572 60.0639C130.953 60.5116 130.11 61.4008 129.612 62.578C129.113 63.7553 129.085 65.2741 129.478 66.6944C129.872 68.1148 130.676 69.4035 131.708 70.1574C132.741 70.9113 133.92 71.2409 135.54 70.7932L209.464 50.3489C209.671 50.2883 209.89 50.2695 210.105 50.2938C210.32 50.3181 210.528 50.3849 210.717 50.4903C210.907 50.5958 211.073 50.7377 211.206 50.908C211.34 51.0783 211.439 51.2735 211.497 51.4822C211.554 51.6909 211.57 51.909 211.543 52.1239C211.515 52.3387 211.445 52.5459 211.338 52.7336C211.229 52.9212 211.085 53.0854 210.913 53.2169C210.741 53.3483 210.544 53.4441 210.334 53.4989L136.41 73.9431C133.908 74.635 131.524 74.0325 129.777 72.7575C128.032 71.4824 126.894 69.6101 126.328 67.5656C125.763 65.5208 125.763 63.2812 126.607 61.29C127.45 59.2988 129.2 57.6058 131.701 56.9141L234.269 28.548C234.324 28.548 234.377 28.5506 234.431 28.5559C234.439 28.5542 234.447 28.5517 234.456 28.5492L234.467 28.5457L234.472 28.5443L234.48 28.5424C238.449 27.699 242.787 30.036 243.964 34.2906L247.177 45.9058C248.363 50.1993 246.129 54.7786 241.999 55.9208L227.662 59.8858ZM228.682 55.0217L229.857 49.428C230.334 47.1551 232.283 45.9973 233.822 46.3203L243.086 48.2642C243.092 49.9706 242.062 51.3214 240.821 51.6645L228.682 55.0217ZM242.911 47.0542L234.059 45.1964C231.793 44.721 229.317 46.4095 228.732 49.1923L226.257 60.9867C225.711 63.5882 227.564 66.1259 229.809 66.6887L333.86 88.5223C335.504 88.8671 336.661 88.4639 337.644 87.6465C338.627 86.8292 339.348 85.4924 339.651 84.0501C339.953 82.6079 339.83 81.0938 339.259 79.9503C338.687 78.8066 337.79 77.9724 336.146 77.6275L261.081 61.8763C260.869 61.8348 260.667 61.7515 260.487 61.6312C260.307 61.511 260.152 61.3561 260.032 61.1756C259.913 60.9951 259.83 60.7927 259.789 60.58C259.749 60.3673 259.751 60.1486 259.795 59.9367C259.839 59.7248 259.926 59.5238 260.048 59.3454C260.171 59.1671 260.328 59.0149 260.51 58.8978C260.693 58.7806 260.896 58.7008 261.109 58.6631C261.323 58.6253 261.541 58.6303 261.753 58.6778L336.817 74.429C339.357 74.9621 341.2 76.5914 342.167 78.5254C343.133 80.4598 343.285 82.645 342.849 84.7213C342.414 86.7975 341.386 88.7874 339.723 90.17C338.06 91.5523 335.729 92.2537 333.189 91.7206L229.038 69.8662C228.991 69.8415 228.944 69.8145 228.899 69.7853C228.891 69.7832 228.882 69.7816 228.874 69.7802C228.865 69.7787 228.856 69.7771 228.849 69.7748C224.935 68.7035 222.153 64.6362 223.059 60.3161L225.534 48.5216C226.449 44.1619 230.535 41.1185 234.729 41.9985L241.931 43.5097L242.911 47.0542ZM248.639 48.2562C248.642 47.3728 248.526 46.4783 248.283 45.5998L248.06 44.7958L357.321 67.722C361.515 68.602 363.984 73.0212 363.069 77.3807L358.413 99.5703C357.498 103.93 353.461 106.984 349.267 106.104L256.011 86.5355C255.799 86.4941 255.597 86.4108 255.417 86.2904C255.237 86.1702 255.082 86.0153 254.962 85.8349C254.843 85.6543 254.76 85.452 254.719 85.2393C254.679 85.0266 254.681 84.8079 254.725 84.5959C254.77 84.384 254.856 84.183 254.978 84.0046C255.101 83.8263 255.258 83.6742 255.44 83.557C255.623 83.4398 255.826 83.3601 256.039 83.3224C256.253 83.2846 256.471 83.2896 256.683 83.337L349.938 102.905C352.204 103.381 354.63 101.682 355.214 98.899L359.87 76.7096C360.454 73.9269 358.916 71.3959 356.65 70.9205L248.639 48.2562Z" fill="url(#paint0_linear_1424_79834)"/>
<path d="M79.3809 54.8606L84.1487 47.6327C85.0603 46.2526 86.2386 45.0686 87.6144 44.1505C88.9901 43.2323 90.5356 42.5985 92.1598 42.2862C93.7841 41.9739 95.4543 41.9895 97.0725 42.3321C98.6906 42.6747 100.224 43.3373 101.582 44.2809L108.684 49.2268L117.175 47.4875C118.795 47.1572 120.464 47.154 122.086 47.4781C123.707 47.8022 125.247 48.4471 126.616 49.3748C127.985 50.3026 129.154 51.4945 130.055 52.8805C130.638 53.7759 131.101 54.7406 131.435 55.7501L131.096 55.8075C128.247 56.5953 126.225 58.537 125.249 60.8426C124.286 63.1188 124.302 65.6311 124.922 67.872C125.543 70.1188 126.809 72.2307 128.801 73.6854C130.81 75.1514 133.552 75.8423 136.417 75.0502L143.182 72.982C143.514 73.3668 143.823 73.7725 144.106 74.1969C145.024 75.5727 145.658 77.1181 145.97 78.7424C146.283 80.3666 146.267 82.0369 145.924 83.655C145.582 85.2732 144.919 86.8065 143.976 88.1648L139.03 95.2665L140.769 103.757C141.099 105.377 141.103 107.047 140.778 108.668C140.454 110.29 139.809 111.83 138.882 113.199C137.954 114.567 136.762 115.736 135.376 116.638C133.99 117.539 132.438 118.155 130.811 118.448L122.293 119.979L117.525 127.206C116.614 128.587 115.435 129.77 114.06 130.689C112.684 131.607 111.138 132.241 109.514 132.553C107.89 132.865 106.22 132.85 104.602 132.507C102.983 132.164 101.45 131.502 100.092 130.558L92.99 125.612L84.4994 127.352C82.8793 127.682 81.2096 127.685 79.5882 127.361C77.9669 127.037 76.4267 126.392 75.0581 125.464C73.6895 124.537 72.5201 123.345 71.6186 121.959C70.7171 120.573 70.1017 119.02 69.8086 117.393L68.278 108.876L61.0501 104.108C59.67 103.196 58.4861 102.018 57.5679 100.642C56.6498 99.2664 56.0159 97.721 55.7037 96.0967C55.3914 94.4725 55.407 92.8022 55.7495 91.1841C56.0921 89.5659 56.7547 88.0326 57.6984 86.6743L62.6443 79.5726L60.9049 71.082C60.5746 69.4619 60.5715 67.7921 60.8956 66.1708C61.2197 64.5494 61.8645 63.0092 62.7923 61.6406C63.72 60.272 64.9119 59.1026 66.298 58.2011C67.684 57.2997 69.2362 56.6843 70.8635 56.3911L79.3809 54.8606Z" fill="url(#paint1_linear_1424_79834)"/>
<path d="M137.95 68.9672L134.934 69.6867C133.669 70.0365 132.848 69.7874 132.085 69.2303C131.308 68.6625 130.627 67.6199 130.286 66.3887C129.945 65.1572 129.995 63.9128 130.37 63.026C130.734 62.1657 131.302 61.5349 132.537 61.1828L133.396 65.9634L137.95 68.9672Z" fill="url(#paint2_linear_1424_79834)"/>
<path fill-rule="evenodd" clip-rule="evenodd" d="M119.773 76.1389C120.079 76.4439 120.322 76.8061 120.487 77.2049C120.653 77.6038 120.738 78.0313 120.738 78.4631C120.738 78.8949 120.653 79.3224 120.487 79.7212C120.322 80.1201 120.079 80.4823 119.773 80.7872L100.077 100.483C99.7722 100.789 99.4099 101.032 99.0111 101.197C98.6123 101.363 98.1847 101.448 97.753 101.448C97.3212 101.448 96.8936 101.363 96.4948 101.197C96.096 101.032 95.7337 100.789 95.4288 100.483L85.5807 90.6353C85.2755 90.3301 85.0334 89.9678 84.8682 89.569C84.703 89.1702 84.618 88.7428 84.618 88.3112C84.618 87.8796 84.703 87.4521 84.8682 87.0534C85.0334 86.6546 85.2755 86.2922 85.5807 85.987C85.8859 85.6818 86.2483 85.4397 86.647 85.2745C87.0458 85.1094 87.4732 85.0243 87.9049 85.0243C88.3365 85.0243 88.7639 85.1094 89.1627 85.2745C89.5615 85.4397 89.9238 85.6818 90.229 85.987L97.753 93.5176L115.125 76.1389C115.43 75.8332 115.792 75.5907 116.191 75.4252C116.59 75.2597 117.017 75.1745 117.449 75.1745C117.881 75.1745 118.308 75.2597 118.707 75.4252C119.106 75.5907 119.468 75.8332 119.773 76.1389Z" fill="#121212"/>
<path d="M130.37 63.026C130.738 62.156 131.315 61.5207 132.579 61.1709L142.905 58.3984L142.405 57.3984L132.273 60.0642C130.653 60.5119 129.811 61.401 129.313 62.5783C128.814 63.7556 128.786 65.2744 129.179 66.6947C129.572 68.1151 130.376 69.4038 131.409 70.1577C132.441 70.9116 133.621 71.2412 135.24 70.7935L153.405 65.8984L152.905 64.8984L134.934 69.6867C133.669 70.0365 132.848 69.7874 132.085 69.2303C131.308 68.6625 130.627 67.6199 130.286 66.3887C129.945 65.1572 129.995 63.9128 130.37 63.026Z" fill="url(#paint3_linear_1424_79834)"/>
<path d="M128.801 73.6854C130.81 75.1514 133.552 75.8423 136.417 75.0502L155.405 69.8984L154.905 68.8984L136.111 73.9434C133.609 74.6353 131.225 74.0328 129.478 72.7578C127.732 71.4827 126.595 69.6104 126.029 67.5659C125.463 65.5211 125.463 63.2815 126.307 61.2903C127.15 59.2991 128.9 57.6061 131.402 56.9144L140.905 54.3984L142.405 52.8984L131.096 55.8075C128.247 56.5953 126.225 58.537 125.249 60.8426C124.286 63.1188 124.302 65.6311 124.922 67.872C125.543 70.1188 126.809 72.2307 128.801 73.6854Z" fill="url(#paint4_linear_1424_79834)"/>
<defs>
<linearGradient id="paint0_linear_1424_79834" x1="145.068" y1="12.4734" x2="145.815" y2="208.843" gradientUnits="userSpaceOnUse">
<stop stop-color="#FFA7F6"/>
<stop offset="1" stop-color="#4E4AFE"/>
</linearGradient>
<linearGradient id="paint1_linear_1424_79834" x1="260.95" y1="17.2106" x2="260.551" y2="138.711" gradientUnits="userSpaceOnUse">
<stop stop-color="#FFA7F6"/>
<stop offset="1" stop-color="#4E4AFE"/>
</linearGradient>
<linearGradient id="paint2_linear_1424_79834" x1="260.95" y1="17.2106" x2="260.551" y2="138.711" gradientUnits="userSpaceOnUse">
<stop stop-color="#FFA7F6"/>
<stop offset="1" stop-color="#4E4AFE"/>
</linearGradient>
<linearGradient id="paint3_linear_1424_79834" x1="260.95" y1="17.2106" x2="260.551" y2="138.711" gradientUnits="userSpaceOnUse">
<stop stop-color="#FFA7F6"/>
<stop offset="1" stop-color="#4E4AFE"/>
</linearGradient>
<linearGradient id="paint4_linear_1424_79834" x1="260.95" y1="17.2106" x2="260.551" y2="138.711" gradientUnits="userSpaceOnUse">
<stop stop-color="#FFA7F6"/>
<stop offset="1" stop-color="#4E4AFE"/>
</linearGradient>
</defs>
</svg>
