<svg width="359" height="184" viewBox="0 0 359 184" fill="none" xmlns="http://www.w3.org/2000/svg">
<path fill-rule="evenodd" clip-rule="evenodd" d="M280.196 74.218C284.957 75.534 289.821 72.3147 291.19 67.3678L298.154 42.1882C299.522 37.241 297.003 31.9802 292.244 30.6642L186.406 1.39857C186.165 1.32866 185.915 1.30706 185.667 1.33502C185.419 1.36298 185.179 1.43994 184.961 1.56142C184.743 1.68292 184.551 1.84652 184.397 2.04271C184.243 2.2389 184.129 2.46378 184.063 2.70428C183.997 2.94477 183.979 3.19611 184.009 3.44363C184.041 3.69117 184.122 3.92998 184.246 4.1462C184.371 4.36241 184.537 4.55171 184.735 4.7031C184.933 4.85449 185.16 4.96495 185.401 5.02804L291.24 34.2937C293.811 35.0047 295.397 38.0266 294.524 41.1845L287.559 66.3639C286.686 69.5217 283.772 71.2995 281.201 70.5885L163.672 38.0904L164.186 40.5381C164.304 41.0962 164.374 41.6507 164.401 42.1984L280.196 74.218ZM164.379 43.5652L279.844 75.4933C285.426 77.0366 290.935 73.2479 292.465 67.7204L299.429 42.5409C300.958 37.0133 298.178 30.9323 292.597 29.389L186.766 0.125475C186.361 0.00876957 185.938 -0.0270264 185.519 0.0201919C185.097 0.0677946 184.688 0.198839 184.316 0.405692C183.945 0.612547 183.62 0.89109 183.356 1.22515C183.094 1.5592 182.9 1.9421 182.788 2.3516C182.674 2.76109 182.643 3.189 182.697 3.61046C182.751 4.03194 182.887 4.43855 183.099 4.80669C183.312 5.17483 183.594 5.49714 183.933 5.75492C184.268 6.01056 184.65 6.19764 185.057 6.30553L290.887 35.569C292.616 36.0471 293.967 38.2323 293.249 40.8318L286.284 66.0112C285.565 68.6106 283.283 69.7913 281.554 69.3132L163.367 36.633L161.334 26.9481C160.154 21.3233 154.827 17.2216 149.171 18.4086L141.54 20.0095L143.705 12.1791C144.316 9.97062 146.803 8.70425 148.755 9.1488L266.818 41.7947C268.275 42.1978 268.94 42.9297 269.364 43.9321C269.796 44.9539 269.853 46.3878 269.46 47.8067C269.067 49.2255 268.283 50.4268 267.387 51.081C266.508 51.723 265.562 52.01 264.104 51.6069L178.919 28.0522C178.514 27.9356 178.091 27.8998 177.672 27.9469C177.25 27.9946 176.841 28.1257 176.47 28.3325C176.098 28.5393 175.773 28.8179 175.509 29.1519C175.247 29.4861 175.054 29.8689 174.941 30.2784C174.827 30.6879 174.796 31.1158 174.85 31.5372C174.904 31.9588 175.04 32.3654 175.252 32.7335C175.465 33.1016 175.748 33.4239 176.086 33.6818C176.421 33.9373 176.803 34.1244 177.21 34.2323L262.395 57.787C265.696 58.6997 268.857 57.9036 271.171 56.2144C273.468 54.5382 274.926 52.1048 275.641 49.5159C276.356 46.9339 276.375 44.0391 275.264 41.4163C274.14 38.7597 271.81 36.5224 268.527 35.6146L150.151 2.88201L149.971 2.88207C149.948 2.88207 149.924 2.88234 149.901 2.88286C144.711 1.83642 139.067 4.89177 137.524 10.4694L134.476 21.4914L7.89194 48.0485C2.22419 49.2376 -0.933098 55.1317 0.244824 60.7445L5.61067 86.3122C6.78864 91.9252 12.0492 96.0529 17.7169 94.8639L125.18 72.3179C125.593 72.2358 125.986 72.0732 126.336 71.8392C126.69 71.6032 126.993 71.2993 127.227 70.9453C127.462 70.5912 127.625 70.194 127.705 69.7767C127.785 69.3595 127.781 68.9305 127.694 68.5147C127.606 68.0988 127.437 67.7046 127.196 67.3546C126.955 67.0047 126.647 66.7062 126.29 66.4764C125.932 66.2466 125.533 66.0901 125.114 66.016C124.699 65.9425 124.274 65.9516 123.863 66.0425L16.4 88.5885C14.6441 88.9568 12.441 87.635 11.887 84.9955L6.52118 59.4277C5.96725 56.7882 7.45314 54.6922 9.20893 54.3238L133.493 28.2488C133.979 32.2824 136.608 35.8857 140.712 37.0207L157.873 41.6749L157.91 41.8544C158.38 44.0968 156.752 46.3631 154.813 46.8636L34.9295 72.0154C33.4494 72.3261 32.5239 71.98 31.6866 71.284C30.8334 70.5747 30.1253 69.3265 29.8229 67.8857C29.5205 66.4451 29.6671 65.0173 30.1632 64.025C30.6499 63.0512 31.3583 62.3624 32.8385 62.0519L119.337 43.9043C119.75 43.8222 120.143 43.6596 120.494 43.4256C120.847 43.1896 121.15 42.8857 121.385 42.5317C121.62 42.1776 121.782 41.7804 121.862 41.3631C121.942 40.9459 121.938 40.5169 121.851 40.1011C121.763 39.6853 121.594 39.291 121.353 38.941C121.112 38.5911 120.804 38.2926 120.447 38.0628C120.089 37.833 119.69 37.6765 119.272 37.6024C118.857 37.529 118.431 37.538 118.02 37.6289L31.5215 55.7766C28.1695 56.4798 25.7259 58.6375 24.4447 61.2001C23.1738 63.7425 22.9949 66.5736 23.5466 69.2024C24.0968 71.8243 25.4076 74.4053 27.5981 76.2265C29.8169 78.0707 32.9133 78.9901 36.2464 78.2909L156.449 53.0721L156.609 52.9895C156.629 52.9788 156.65 52.9677 156.671 52.9563C160.839 51.7686 164.015 47.9998 164.379 43.5652ZM157.586 40.3141L156.716 36.1669L142.069 32.1166C139.497 31.4056 137.854 28.3677 138.728 25.2101L142.429 11.8264C143.246 8.87435 146.486 7.25568 149.081 7.8661L267.171 40.5194C269.037 41.0352 270.008 42.0598 270.582 43.4163C271.157 44.7728 271.189 46.5228 270.736 48.1594C270.283 49.796 269.356 51.281 268.166 52.1496C266.977 53.0183 265.617 53.3981 263.751 52.8822L178.559 29.3253C178.32 29.2554 178.068 29.2338 177.82 29.2618C177.572 29.2898 177.332 29.3667 177.114 29.4882C176.896 29.6098 176.704 29.7733 176.551 29.9695C176.396 30.1657 176.282 30.3906 176.216 30.6311C176.15 30.8716 176.132 31.1229 176.162 31.3705C176.194 31.618 176.275 31.8568 176.399 32.073C176.524 32.2892 176.69 32.4785 176.888 32.6299C177.086 32.7813 177.314 32.8917 177.555 32.9548L262.748 56.5117C265.631 57.3089 268.379 56.6147 270.391 55.1456C272.403 53.6764 273.714 51.519 274.366 49.1633C275.018 46.8071 275.018 44.2265 274.045 41.9321C273.074 39.6378 271.057 37.6871 268.174 36.89L149.972 4.20524C149.909 4.20525 149.848 4.20822 149.785 4.21436C149.777 4.21235 149.768 4.20948 149.757 4.20658L149.745 4.20259L149.738 4.20092L149.729 4.19871C145.155 3.22691 140.156 5.91978 138.8 10.8221L135.097 24.2058C133.73 29.1529 136.305 34.4294 141.064 35.7454L157.586 40.3141ZM156.411 34.7095L155.057 28.2642C154.508 25.6452 152.261 24.3112 150.487 24.6833L139.812 26.9232C139.804 28.8893 140.991 30.4458 142.422 30.8412L156.411 34.7095ZM140.013 25.5289L150.215 23.3883C152.826 22.8405 155.68 24.7861 156.353 27.9926L159.206 41.5826C159.834 44.5802 157.699 47.5043 155.112 48.1528L35.2013 73.3105C33.3069 73.7079 31.9734 73.2433 30.8406 72.3014C29.7076 71.3596 28.8765 69.8194 28.5278 68.1574C28.179 66.4957 28.3207 64.7511 28.9794 63.4335C29.6381 62.1157 30.6724 61.1544 32.5667 60.757L119.073 42.6077C119.318 42.5599 119.551 42.4639 119.758 42.3253C119.966 42.1868 120.144 42.0083 120.282 41.8004C120.42 41.5923 120.515 41.3591 120.562 41.1141C120.609 40.869 120.607 40.617 120.556 40.3728C120.504 40.1286 120.405 39.8971 120.264 39.6915C120.122 39.486 119.941 39.3107 119.731 39.1757C119.521 39.0407 119.287 38.9488 119.041 38.9053C118.795 38.8618 118.543 38.8675 118.3 38.9222L31.7932 57.0715C28.8657 57.6858 26.7425 59.5631 25.6283 61.7916C24.5143 64.0205 24.3396 66.5385 24.8417 68.9308C25.3437 71.3231 26.5281 73.616 28.4443 75.2091C30.3604 76.8019 33.0472 77.6101 35.9747 76.9958L156 51.8141C156.055 51.7856 156.109 51.7545 156.161 51.7208C156.17 51.7184 156.181 51.7166 156.19 51.7149C156.2 51.7133 156.21 51.7113 156.219 51.7088C160.729 50.4743 163.936 45.7878 162.891 40.8099L160.039 27.2197C158.985 22.1963 154.275 18.6896 149.442 19.7035L141.142 21.4448L140.013 25.5289ZM133.412 26.914C133.409 25.8961 133.542 24.8654 133.822 23.8531L134.079 22.9267L8.16371 49.3434C3.33087 50.3574 0.485767 55.4495 1.53999 60.4727L6.90585 86.0406C7.96011 91.0639 12.6123 94.5829 17.4452 93.569L124.916 71.0213C125.161 70.9735 125.394 70.8775 125.601 70.7389C125.809 70.6004 125.987 70.4219 126.125 70.214C126.263 70.0059 126.358 69.7727 126.405 69.5276C126.452 69.2826 126.45 69.0306 126.398 68.7864C126.347 68.5422 126.248 68.3105 126.106 68.1051C125.965 67.8996 125.784 67.7243 125.574 67.5893C125.364 67.4543 125.129 67.3624 124.884 67.3189C124.638 67.2754 124.386 67.2811 124.142 67.3358L16.6718 89.8835C14.0609 90.4312 11.2648 88.4737 10.5919 85.2671L5.22602 59.6993C4.55312 56.493 6.32633 53.5767 8.93716 53.0289L133.412 26.914Z" fill="url(#paint0_linear_1424_78142)"/>
<path fill-rule="evenodd" clip-rule="evenodd" d="M332.752 131.747C334.932 136.864 337.115 141.979 339.289 147.098C341.761 152.918 344.199 158.753 346.707 164.558C347.571 166.559 347.733 168.479 346.206 170.154C344.722 171.783 342.83 171.855 340.819 171.149C336.02 169.466 331.194 167.861 326.409 166.141C325.235 165.719 324.754 166.027 324.262 167.106C322.073 171.911 319.814 176.686 317.545 181.455C316.639 183.359 315.043 184.074 312.98 183.925C311.147 183.794 310.014 182.766 309.337 181.162C305.765 172.71 302.208 164.25 298.642 155.795C298.478 155.405 298.272 155.032 297.979 154.435C296.763 157.317 295.616 160.005 294.493 162.704C291.936 168.85 289.401 175.004 286.837 181.146C286.07 182.983 284.732 183.975 282.655 184C280.566 184.024 279.296 183.013 278.442 181.207C276.185 176.431 273.873 171.682 271.627 166.901C271.212 166.018 270.789 165.883 269.863 166.214C264.806 168.02 259.723 169.756 254.639 171.488C252.863 172.093 251.161 171.781 249.916 170.4C248.669 169.017 248.306 167.346 249.082 165.492C253.218 155.627 257.317 145.746 261.437 135.873C261.637 135.392 261.914 134.943 262.154 134.48C262.79 134.743 263.386 135.065 263.794 135.649C261.756 140.616 259.733 145.59 257.678 150.549C255.566 155.645 253.417 160.726 251.298 165.818C250.835 166.928 250.68 168.064 251.625 169.012C252.496 169.885 253.501 169.621 254.537 169.256C259.826 167.391 265.14 165.596 270.415 163.691C271.763 163.205 272.421 163.456 273.032 164.79C275.391 169.938 277.87 175.031 280.297 180.147C280.777 181.158 281.456 181.944 282.654 181.925C283.78 181.906 284.475 181.181 284.887 180.193C288.652 171.151 292.375 162.091 296.202 153.075C296.799 151.67 296.697 150.588 295.857 149.426C295.469 149.659 295.406 149.995 295.28 150.295C291.556 159.2 287.832 168.105 284.1 177.008C283.852 177.6 283.778 178.438 282.935 178.457C282.042 178.477 281.88 177.609 281.57 176.995C278.991 171.894 276.4 166.799 273.879 161.67C273.427 160.752 273 160.537 272.032 160.878C269.253 161.856 266.442 162.74 263.64 163.649C260.792 164.573 257.938 165.476 255.091 166.403C254.616 166.557 254.158 166.695 253.774 166.267C253.444 165.898 253.542 165.476 253.713 165.06C253.859 164.708 253.979 164.346 254.125 163.995C257.95 154.823 261.777 145.651 265.603 136.479C268.816 137.318 272.106 137.226 275.354 137.017C279.648 136.742 283.318 138.103 286.813 140.432C289.648 142.321 292.565 144.144 296.161 144.212C301.136 156.044 306.119 167.873 311.076 179.713C311.544 180.832 312.09 181.828 313.433 181.862C314.774 181.895 315.413 180.932 315.923 179.842C318.198 174.97 320.459 170.092 322.787 165.246C323.874 162.985 323.336 162.841 326.257 163.842C331.382 165.597 336.511 167.342 341.625 169.13C342.75 169.523 343.756 169.602 344.621 168.656C345.497 167.698 345.245 166.695 344.789 165.618C340.265 154.937 335.766 144.245 331.26 133.556C331.718 132.92 332.089 132.213 332.752 131.747Z" fill="#FCCDD3"/>
<path fill-rule="evenodd" clip-rule="evenodd" d="M316.165 90.8435C316.506 92.0288 315.728 92.9889 314.571 92.9565C313.625 92.9755 313.237 92.3387 312.992 91.5734C312.931 91.38 312.867 91.1868 312.804 90.9934C312.542 90.1917 312.279 89.3881 312.116 88.5659C311.948 87.7187 311.516 87.5112 310.732 87.5322C309.068 87.5772 307.402 87.5814 305.738 87.5414C304.994 87.5234 304.615 87.7853 304.433 88.5154C304.302 89.0414 304.138 89.5592 303.974 90.077C303.808 90.6014 303.642 91.1258 303.51 91.6586C303.236 92.7655 302.53 93.1797 301.503 92.9254C300.324 92.6336 300.106 91.6881 300.388 90.6698C300.86 88.9678 301.367 87.2756 301.874 85.5833C302.103 84.8192 302.332 84.0551 302.558 83.2901C303.888 78.7807 305.217 74.2709 306.544 69.7607L306.554 69.7262C306.756 69.0398 306.97 68.3117 307.75 68.125C308.721 67.8923 309.568 68.1152 309.891 69.225C310.249 70.4567 310.608 71.6884 310.967 72.9201C312.706 78.8927 314.446 84.8651 316.165 90.8435ZM277.927 84.0227C277.371 82.9402 277.027 81.823 277.137 80.64C277.059 79.7754 277.118 78.9492 277.467 78.2139C277.769 77.5796 278.067 76.9426 278.364 76.3055C279.355 74.1814 280.348 72.056 281.505 70.0256C283.119 67.1945 287.266 67.3941 288.764 70.2769C289.802 72.2741 290.789 74.2977 291.776 76.3212C291.978 76.7354 292.18 77.1495 292.383 77.5635C293.342 79.5236 293.352 81.5217 292.437 83.488C291.778 84.9031 291.092 86.3053 290.405 87.7075C289.983 88.5698 289.561 89.4322 289.145 90.2976C288.313 92.0292 287.069 93.0975 285.034 93.0316C283.1 92.9693 281.874 91.9671 281.061 90.2756C280.05 88.1745 278.99 86.097 277.927 84.0227ZM323.443 83.0846C323.44 82.0766 323.437 81.0686 323.435 80.0607C323.433 79.0679 323.434 78.075 323.436 77.0822C323.44 74.5017 323.444 71.9213 323.387 69.3422C323.363 68.2384 323.718 67.9877 324.76 68.0066C326.906 68.0449 329.054 68.0341 331.202 68.0233C332.292 68.0179 333.382 68.0124 334.472 68.0134C337.188 68.0155 339.293 69.9934 339.388 72.7147C339.458 74.7135 339.458 76.7175 339.401 78.7166C339.325 81.3847 337.306 83.3873 334.644 83.45C332.407 83.503 330.168 83.5036 327.931 83.4585C327.06 83.441 326.766 83.7254 326.79 84.6003C326.845 86.6472 326.844 88.6973 326.804 90.7452C326.782 91.842 326.566 92.9368 325.125 92.9228C323.862 92.9101 323.443 92.1019 323.448 90.9225C323.459 88.3099 323.451 85.6972 323.443 83.0846ZM253.969 82.7092C253.968 81.8863 253.966 81.0635 253.965 80.2407C253.963 79.2558 253.964 78.2709 253.965 77.2859C253.967 74.6976 253.969 72.1092 253.921 69.5219C253.901 68.487 254.135 68.1147 255.246 68.1386C257.445 68.1862 259.645 68.1733 261.845 68.1604C262.883 68.1543 263.92 68.1482 264.958 68.1485C267.697 68.1495 269.811 70.0919 269.915 72.8063C269.994 74.852 270.001 76.9049 269.926 78.9506C269.831 81.5398 267.807 83.5149 265.218 83.5832C263.029 83.641 260.836 83.6658 258.649 83.5849C257.538 83.5441 257.277 83.9385 257.314 84.9777C257.388 87.0711 257.378 89.1705 257.309 91.2642C257.281 92.1501 256.943 92.9638 255.841 93.0672C254.959 93.1501 254.36 92.7391 254.065 91.9476C253.967 91.6847 253.975 91.3788 253.983 91.0782C253.986 90.9902 253.988 90.9026 253.988 90.8167C253.979 88.1141 253.974 85.4116 253.969 82.7092ZM288.331 20.6029C284.152 23.7305 279.481 25.4367 274.885 24.6553C274.108 24.6569 273.415 24.651 272.777 24.6456C271.515 24.635 270.471 24.6262 269.43 24.6797C266.577 24.8263 264.201 25.8951 262.505 28.3315C261.198 30.2095 260.117 32.2096 259.092 34.2396C259.217 34.0866 259.297 33.9915 259.297 33.9915L268.872 35.6149C272.155 36.5227 274.485 38.76 275.61 41.4166C276.72 44.0394 276.701 46.9342 275.987 49.5163C275.271 52.1051 273.813 54.5386 271.516 56.2147C269.202 57.904 266.041 58.7 262.74 57.7873L241.538 51.3069C241.394 52.0404 241.328 52.8175 241.336 53.6373C241.347 54.6472 241.35 55.6572 241.354 56.6671C241.359 58.0881 241.364 59.5089 241.389 60.9294C241.436 63.6214 240.753 66.109 239.394 68.4172C239.323 68.5378 239.252 68.6583 239.181 68.7788C238.165 70.5042 237.149 72.2301 236.096 73.9324C233.767 77.6974 233.657 81.4445 236.084 85.2105C236.318 85.5739 236.534 85.9499 236.749 86.3258C237.056 86.86 237.362 87.3939 237.721 87.8904C240.601 91.8735 241.89 96.2784 241.479 101.198C241.381 102.369 241.404 103.55 241.427 104.73C241.434 105.078 241.441 105.425 241.444 105.772C241.478 109.023 242.606 111.729 245.438 113.535C245.622 113.652 245.806 113.771 245.989 113.89C246.887 114.471 247.79 115.055 248.758 115.484C253.981 117.799 257.899 121.406 260.237 126.679C260.594 127.484 261.05 128.246 261.505 129.006C261.663 129.269 261.82 129.532 261.973 129.796C263.842 133.023 266.695 134.506 270.372 134.498C272.897 134.492 275.421 134.481 277.946 134.451C280.64 134.42 283.107 135.186 285.409 136.535C287.257 137.618 289.102 138.706 290.922 139.835C294.558 142.089 298.175 142.11 301.809 139.843C302.367 139.495 302.933 139.158 303.498 138.821C304.323 138.329 305.148 137.837 305.951 137.311C309.065 135.269 312.416 134.16 316.187 134.36C317.63 134.437 319.078 134.423 320.526 134.409C321.128 134.403 321.73 134.397 322.331 134.397C326.066 134.401 328.952 132.896 330.814 129.592C331.042 129.186 331.274 128.782 331.506 128.377C332.174 127.211 332.842 126.045 333.441 124.845C335.271 121.18 337.958 118.414 341.632 116.576C343.29 115.747 344.896 114.806 346.488 113.853C349.071 112.307 350.803 110.175 351.092 107.041C351.285 104.953 351.239 102.865 351.192 100.778C351.174 99.9619 351.155 99.1453 351.151 98.3289C351.137 95.3844 351.867 92.6863 353.383 90.1787C354.024 89.1187 354.656 88.0536 355.289 86.9885C355.75 86.2117 356.212 85.4349 356.676 84.6601C358.717 81.2576 358.812 77.8285 356.799 74.385C355.91 72.8644 355.016 71.3449 354.057 69.8685C352.003 66.7065 350.86 63.3168 351.074 59.4904C351.179 57.6083 351.148 55.7166 351.116 53.8284C351.112 53.6189 351.109 53.4095 351.105 53.2001C351.055 50.0139 349.946 47.3639 347.184 45.5365C345.313 44.2987 343.347 43.2359 341.355 42.2223C337.841 40.4353 335.203 37.8023 333.391 34.3003C332.495 32.5677 331.521 30.8736 330.531 29.1924C328.989 26.5764 326.772 24.9133 323.682 24.6367C322.847 24.562 322.005 24.5612 321.163 24.5604C320.813 24.5601 320.464 24.5598 320.115 24.5542C319.256 24.5405 318.396 24.5608 317.536 24.5811C315.823 24.6215 314.11 24.662 312.408 24.4333C309.249 24.0084 306.539 22.4181 304.054 20.5908C298.745 16.6869 293.625 16.6417 288.331 20.6029ZM243.992 46.7267L264.449 51.6073C265.907 52.0103 266.853 51.7233 267.732 51.0813C268.628 50.4271 269.413 49.2258 269.805 47.807C270.198 46.3882 270.141 44.9542 269.709 43.9325C269.285 42.93 268.62 42.1981 267.163 41.7951L256.415 38.6005C256.415 38.6005 256.615 38.2011 256.854 37.7224C255.245 39.704 253.252 41.2948 250.857 42.5045C249.648 43.115 248.473 43.7937 247.299 44.4721C246.907 44.6986 246.515 44.9252 246.122 45.1492C245.305 45.6144 244.596 46.1407 243.992 46.7267Z" fill="#FEFEFE"/>
<path fill-rule="evenodd" clip-rule="evenodd" d="M329.757 134.92C333.292 143.332 336.827 151.743 340.362 160.155C340.969 161.601 341.595 163.04 342.177 164.496C342.382 165.006 342.738 165.567 342.257 166.1C341.766 166.645 341.204 166.31 340.671 166.139C335.151 164.376 329.621 162.643 324.121 160.82C323.026 160.457 322.578 160.693 322.085 161.709C319.594 166.849 317.017 171.948 314.465 177.059C314.195 177.6 314.02 178.235 313.206 178.232C312.359 178.228 312.25 177.529 312.025 176.996C307.566 166.447 303.122 155.891 298.684 145.333C298.539 144.99 298.48 144.612 298.381 144.25C302.883 142.91 306.43 139.729 310.658 137.861C312.018 137.26 313.452 136.982 314.94 136.983C317.08 136.985 319.221 136.923 321.358 136.992C324.364 137.091 327.21 136.637 329.757 134.92Z" fill="#FCCDD3"/>
<path fill-rule="evenodd" clip-rule="evenodd" d="M289.786 80.5776C289.756 80.4318 289.736 80.2817 289.715 80.1316C289.671 79.806 289.626 79.4804 289.49 79.1985C288.336 76.7985 287.17 74.4022 285.935 72.043C285.397 71.0157 284.552 71.0274 284.014 72.0782C282.843 74.3632 281.746 76.6867 280.657 79.0124C280.095 80.2132 280.248 81.4283 280.824 82.59C281.478 83.9104 282.14 85.2267 282.802 86.5431L282.804 86.5458C283.189 87.311 283.574 88.0762 283.957 88.8422L283.971 88.8694C284.206 89.3385 284.45 89.8273 285.067 89.7986C285.607 89.7738 285.849 89.3319 286.068 88.891C286.604 87.8153 287.143 86.7411 287.681 85.6669C288.23 84.5722 288.779 83.4776 289.325 82.3815C289.604 81.8206 289.767 81.2258 289.786 80.5776ZM277.137 80.64C277.059 79.7754 277.118 78.9492 277.467 78.2139C277.769 77.5807 278.066 76.9449 278.363 76.3089C279.355 74.1839 280.347 72.0567 281.505 70.0256C283.119 67.1945 287.266 67.3941 288.764 70.2769C289.799 72.2696 290.785 74.2887 291.77 76.3075C291.974 76.7261 292.178 77.1451 292.383 77.5635C293.342 79.5236 293.352 81.5217 292.437 83.488C291.778 84.9031 291.092 86.3053 290.405 87.7075C289.983 88.5698 289.561 89.4322 289.145 90.2976C288.313 92.0292 287.069 93.0975 285.034 93.0316C283.1 92.9693 281.874 91.9671 281.061 90.2756C280.05 88.1745 278.99 86.097 277.927 84.0227C277.371 82.9402 277.027 81.823 277.137 80.64ZM257.185 76.8911C257.183 76.5398 257.18 76.1886 257.179 75.8373C257.179 75.5092 257.181 75.181 257.184 74.8528C257.19 74.087 257.196 73.3212 257.162 72.5572C257.125 71.7102 257.422 71.3558 258.305 71.3715C260.443 71.4088 262.582 71.3949 264.72 71.3653C266.042 71.347 266.669 72.0769 266.718 73.2759C266.79 75.0322 266.784 76.7948 266.725 78.5522C266.686 79.7091 266.042 80.4031 264.823 80.411C264.001 80.4161 263.179 80.4157 262.357 80.4153C260.945 80.4145 259.534 80.4138 258.123 80.4415C257.325 80.4574 257.161 80.0898 257.178 79.4032C257.198 78.5662 257.191 77.7287 257.185 76.8911ZM253.964 77.2898C253.964 78.2735 253.963 79.257 253.965 80.2407L253.969 82.7934C253.974 85.4679 253.979 88.1421 253.988 90.8167C253.988 90.9026 253.986 90.9902 253.983 91.0782C253.975 91.3788 253.967 91.6847 254.065 91.9476C254.36 92.7391 254.959 93.1501 255.841 93.0672C256.943 92.9638 257.281 92.1501 257.309 91.2642C257.378 89.1705 257.388 87.0711 257.314 84.9777C257.277 83.9385 257.538 83.5441 258.649 83.5849C260.836 83.6658 263.029 83.641 265.218 83.5832C267.807 83.5149 269.831 81.5398 269.926 78.9506C270.001 76.9049 269.994 74.852 269.915 72.8063C269.811 70.0919 267.697 68.1495 264.958 68.1485C263.915 68.1481 262.873 68.1542 261.83 68.1603C259.635 68.1732 257.439 68.1861 255.246 68.1386C254.135 68.1147 253.901 68.487 253.921 69.5219C253.969 72.1105 253.967 74.7001 253.964 77.2898ZM326.658 76.8224C326.654 76.4682 326.651 76.1141 326.65 75.76C326.649 75.426 326.653 75.0918 326.656 74.7577C326.663 73.9975 326.671 73.2374 326.63 72.4798C326.58 71.5526 326.925 71.2129 327.86 71.2334C329.95 71.2788 332.042 71.2667 334.132 71.2271C335.439 71.2023 336.126 71.8703 336.183 73.0825C336.266 74.8378 336.251 76.6008 336.201 78.3584C336.166 79.5882 335.496 80.2798 334.209 80.28C333.752 80.2801 333.295 80.2795 332.838 80.279C331.109 80.2771 329.38 80.2751 327.652 80.3043C326.923 80.3165 326.62 80.0797 326.646 79.3256C326.674 78.492 326.666 77.6572 326.658 76.8224ZM323.436 77.0822C323.434 78.075 323.433 79.0679 323.435 80.0607C323.437 81.0654 323.44 82.0701 323.443 83.0748C323.451 85.6907 323.458 88.3066 323.448 90.9225C323.443 92.1019 323.862 92.9101 325.125 92.9228C326.566 92.9368 326.782 91.842 326.804 90.7452C326.844 88.6973 326.845 86.6472 326.79 84.6003C326.766 83.7254 327.06 83.441 327.931 83.4585C330.168 83.5036 332.407 83.503 334.644 83.45C337.306 83.3873 339.325 81.3847 339.401 78.7166C339.458 76.7175 339.458 74.7135 339.388 72.7147C339.293 69.9934 337.188 68.0155 334.472 68.0134C333.382 68.0124 332.292 68.0179 331.202 68.0233C329.054 68.0341 326.906 68.0449 324.76 68.0066C323.718 67.9877 323.363 68.2384 323.387 69.3422C323.444 71.9213 323.44 74.5017 323.436 77.0822ZM308.109 76.1568L308.478 76.1477C308.674 76.8205 308.869 77.4936 309.064 78.1668C309.589 79.9804 310.115 81.794 310.665 83.6C310.841 84.1781 310.727 84.3774 310.131 84.3654C309.7 84.3569 309.227 84.4022 308.755 84.4474C307.722 84.5463 306.694 84.6447 306.136 84.1773C305.554 83.6893 305.963 82.7404 306.37 81.7958C306.545 81.389 306.72 80.9829 306.816 80.6148C307.086 79.5728 307.396 78.541 307.706 77.5092C307.842 77.0587 307.977 76.6082 308.109 76.1568ZM312.992 91.5734C313.237 92.3384 313.626 92.9753 314.573 92.9555C315.729 92.9887 316.506 92.0288 316.165 90.8435C314.446 84.8661 312.708 78.8943 310.969 72.9227C310.61 71.69 310.25 70.4578 309.891 69.225C309.568 68.1152 308.721 67.8923 307.75 68.125C306.97 68.3116 306.757 69.0392 306.555 69.7252L306.544 69.7607C305.217 74.2709 303.888 78.7807 302.558 83.2901C302.332 84.0548 302.104 84.8183 301.875 85.5821C301.368 87.2747 300.86 88.9674 300.388 90.6698C300.106 91.6881 300.324 92.6336 301.503 92.9254C302.53 93.1797 303.236 92.7655 303.51 91.6586C303.642 91.1258 303.808 90.6014 303.974 90.077C304.138 89.5592 304.302 89.0414 304.433 88.5154C304.615 87.7853 304.994 87.5234 305.738 87.5414C307.402 87.5811 309.069 87.577 310.733 87.532C311.517 87.511 311.949 87.7184 312.117 88.5656C312.28 89.3877 312.542 90.1917 312.804 90.9934C312.867 91.1868 312.931 91.38 312.992 91.5734Z" fill="#121212"/>
<path fill-rule="evenodd" clip-rule="evenodd" d="M257.179 75.8373C257.177 74.7437 257.21 73.6487 257.162 72.5572C257.125 71.7102 257.422 71.3558 258.305 71.3715C260.443 71.4088 262.582 71.3949 264.72 71.3653C266.042 71.347 266.669 72.0769 266.718 73.2759C266.79 75.0322 266.784 76.7948 266.725 78.5522C266.686 79.7091 266.042 80.4031 264.823 80.411C262.589 80.425 260.355 80.3977 258.123 80.4415C257.325 80.4574 257.161 80.0898 257.178 79.4032C257.206 78.2152 257.182 77.0262 257.179 75.8373Z" fill="#FEFEFE"/>
<path fill-rule="evenodd" clip-rule="evenodd" d="M326.65 75.76C326.648 74.6664 326.689 73.5705 326.63 72.4798C326.58 71.5526 326.925 71.2129 327.86 71.2334C329.95 71.2788 332.042 71.2667 334.132 71.2271C335.439 71.2023 336.126 71.8703 336.183 73.0825C336.266 74.8378 336.251 76.6008 336.201 78.3584C336.166 79.5882 335.496 80.2798 334.209 80.28C332.023 80.2803 329.837 80.2674 327.652 80.3043C326.923 80.3165 326.62 80.0797 326.646 79.3256C326.686 78.1384 326.653 76.9488 326.65 75.76Z" fill="#FEFEFE"/>
<path fill-rule="evenodd" clip-rule="evenodd" d="M289.786 80.5776C289.767 81.2258 289.604 81.8206 289.325 82.3815C288.244 84.5533 287.15 86.7192 286.068 88.891C285.849 89.3319 285.607 89.7738 285.067 89.7986C284.438 89.8278 284.196 89.3194 283.957 88.8422C282.914 86.7575 281.859 84.6788 280.824 82.59C280.248 81.4283 280.095 80.2132 280.657 79.0124C281.746 76.6867 282.843 74.3632 284.014 72.0782C284.552 71.0274 285.397 71.0157 285.935 72.043C287.17 74.4022 288.336 76.7985 289.49 79.1985C289.688 79.6104 289.692 80.1155 289.786 80.5776Z" fill="#FEFEFE"/>
<path fill-rule="evenodd" clip-rule="evenodd" d="M308.478 76.1477C309.203 78.6331 309.91 81.1236 310.665 83.6C310.841 84.1781 310.727 84.3774 310.131 84.3654C308.759 84.3383 306.948 84.8585 306.135 84.1775C305.302 83.4794 306.499 81.8378 306.816 80.6148C307.203 79.1177 307.675 77.642 308.109 76.1568C308.232 76.1537 308.355 76.1508 308.478 76.1477Z" fill="#FEFEFE"/>
<path d="M269.709 43.9325C269.285 42.93 268.62 42.1981 267.163 41.7951L255.263 38.6003L255.839 37.4481L267.516 40.5197C269.382 41.0355 270.353 42.0601 270.927 43.4166C271.502 44.7731 271.534 46.5231 271.082 48.1597C270.628 49.7964 269.701 51.2813 268.512 52.15C267.322 53.0186 265.962 53.3984 264.096 52.8825L243.162 47.2422L243.738 46.09L264.449 51.6073C265.907 52.0103 266.853 51.7233 267.732 51.0813C268.628 50.4271 269.413 49.2258 269.805 47.807C270.198 46.3882 270.141 44.9542 269.709 43.9325Z" fill="url(#paint1_linear_1424_78142)"/>
<path d="M271.516 56.2147C269.202 57.904 266.041 58.7 262.74 57.7873L240.857 51.8512L241.433 50.699L263.093 56.512C265.976 57.3093 268.724 56.615 270.737 55.1459C272.748 53.6767 274.059 51.5194 274.711 49.1636C275.363 46.8074 275.363 44.2269 274.39 41.9324C273.419 39.6381 271.402 37.6874 268.519 36.8903L257.567 33.9913L255.839 32.263L268.872 35.6149C272.155 36.5227 274.485 38.76 275.61 41.4166C276.72 44.0394 276.701 46.9342 275.987 49.5163C275.271 52.1051 273.813 54.5386 271.516 56.2147Z" fill="url(#paint2_linear_1424_78142)"/>
<defs>
<linearGradient id="paint0_linear_1424_78142" x1="142.039" y1="-17.1446" x2="143.482" y2="253.81" gradientUnits="userSpaceOnUse">
<stop stop-color="#FFA7F6"/>
<stop offset="1" stop-color="#4E4AFE"/>
</linearGradient>
<linearGradient id="paint1_linear_1424_78142" x1="119.224" y1="-8.85825" x2="119.685" y2="131.141" gradientUnits="userSpaceOnUse">
<stop stop-color="#FFA7F6"/>
<stop offset="0.838542" stop-color="#AC7BFA"/>
<stop offset="0.9999" stop-color="#7B62FC"/>
<stop offset="1" stop-color="#4E4AFE"/>
</linearGradient>
<linearGradient id="paint2_linear_1424_78142" x1="119.224" y1="-8.85825" x2="119.685" y2="131.141" gradientUnits="userSpaceOnUse">
<stop stop-color="#FFA7F6"/>
<stop offset="0.838542" stop-color="#AC7BFA"/>
<stop offset="0.9999" stop-color="#7B62FC"/>
<stop offset="1" stop-color="#4E4AFE"/>
</linearGradient>
</defs>
</svg>
