<svg width="771" height="747" viewBox="0 0 771 747" fill="none" xmlns="http://www.w3.org/2000/svg">
<path fill-rule="evenodd" clip-rule="evenodd" d="M200.434 160.146L481.312 0.757109C482.659 -0.00709987 484.255 -0.202271 485.746 0.214893L765.811 78.5643C770.814 79.9638 771.607 86.7226 767.065 89.2427L403.536 290.934C400.717 292.498 399.71 296.057 401.291 298.866L563.375 586.899C564.951 589.699 563.954 593.248 561.151 594.819L290.823 746.259C289.483 747.009 287.901 747.199 286.422 746.786L4.25144 668.081C-0.764792 666.682 -1.55035 659.899 3.0133 657.391L358.034 462.233C360.872 460.673 361.887 457.095 360.292 454.277L198.245 168.064C196.664 165.273 197.644 161.729 200.434 160.146ZM262.56 172.531L452.939 65.1045C458.167 62.1549 463.891 68.1002 460.745 73.2118L354.297 246.175C352.481 249.126 348.502 249.842 345.771 247.71L261.839 182.173C258.572 179.621 258.95 174.568 262.56 172.531ZM304.622 692.558L497.78 583.564C502.28 581.025 501.477 574.316 496.505 572.911L345.913 530.345C342.82 529.471 339.606 531.272 338.737 534.366L296.171 685.926C294.77 690.916 300.108 695.106 304.622 692.558Z" fill="#E0E0E0"/>
</svg>
