<svg width="26" height="24" viewBox="0 0 26 24" fill="none" xmlns="http://www.w3.org/2000/svg">
<path fill-rule="evenodd" clip-rule="evenodd" d="M7.06921 5.14531L16.0935 0.024325C16.1368 -0.000228111 16.1881 -0.00649872 16.236 0.00690426L25.2341 2.52418C25.3949 2.56914 25.4204 2.7863 25.2744 2.86726L13.5947 9.34737C13.5041 9.39761 13.4717 9.51195 13.5225 9.60221L18.7301 18.8564C18.7807 18.9464 18.7487 19.0604 18.6586 19.1108L9.97333 23.9764C9.93028 24.0005 9.87944 24.0066 9.83191 23.9934L0.76611 21.4647C0.604945 21.4197 0.579706 21.2018 0.72633 21.1212L12.1327 14.851C12.2239 14.8009 12.2565 14.6859 12.2053 14.5954L6.99888 5.3997C6.94811 5.31002 6.97959 5.19617 7.06921 5.14531ZM9.06526 5.54321L15.1819 2.09173C15.3499 1.99696 15.5338 2.18798 15.4327 2.35221L12.0127 7.90933C11.9543 8.00414 11.8265 8.02715 11.7387 7.95863L9.04211 5.85299C8.93713 5.77103 8.94927 5.60866 9.06526 5.54321ZM10.4167 22.2511L16.6226 18.7492C16.7672 18.6677 16.7414 18.4521 16.5817 18.407L11.7433 17.0394C11.6439 17.0113 11.5407 17.0692 11.5127 17.1686L10.1452 22.038C10.1001 22.1983 10.2716 22.3329 10.4167 22.2511Z" fill="white"/>
</svg>
